<svg width="16" height="16" viewBox="0 0 16 16" fill="none" xmlns="http://www.w3.org/2000/svg">
<path d="M13.5 7V4" stroke="black" stroke-linecap="round" stroke-linejoin="round"/>
<path d="M15 5.5H12" stroke="black" stroke-linecap="round" stroke-linejoin="round"/>
<path d="M10.5 1.5V3.5" stroke="black" stroke-linecap="round" stroke-linejoin="round"/>
<path d="M11.5 2.5H9.5" stroke="black" stroke-linecap="round" stroke-linejoin="round"/>
<path d="M13.5437 9.53752C12.562 9.8128 11.5247 9.82182 10.5384 9.56366C9.55213 9.3055 8.65231 8.78946 7.93139 8.06854C7.21047 7.34762 6.69443 6.4478 6.43627 5.46149C6.17811 4.47519 6.18713 3.43794 6.46241 2.45627C5.49457 2.72565 4.61421 3.24391 3.909 3.95941C3.20379 4.67492 2.69835 5.56271 2.44303 6.53435C2.1877 7.50599 2.19141 8.52756 2.45377 9.49732C2.71613 10.4671 3.22799 11.3512 3.93836 12.0616C4.64874 12.7719 5.53284 13.2838 6.5026 13.5462C7.47236 13.8085 8.49394 13.8122 9.46558 13.5569C10.4372 13.3016 11.325 12.7961 12.0405 12.0909C12.756 11.3857 13.2743 10.5054 13.5437 9.53752Z" stroke="black" stroke-linecap="round" stroke-linejoin="round"/>
</svg>
